<svg width="205" height="192" viewBox="0 0 205 192" fill="none" xmlns="http://www.w3.org/2000/svg">
<g filter="url(#filter0_d_7105_939)">
<path d="M10.5654 25.6484C10.5654 14.6027 19.5197 5.64844 30.5654 5.64844H174.438C185.483 5.64844 194.438 14.6027 194.438 25.6484V156.197C194.438 167.242 185.483 176.197 174.438 176.197H30.5655C19.5198 176.197 10.5654 167.242 10.5654 156.197V25.6484Z" fill="url(#paint0_linear_7105_939)"/>
</g>
<path fill-rule="evenodd" clip-rule="evenodd" d="M142.5 59.5252C142.5 60.2259 142.265 60.9148 141.77 61.4108C139.618 63.567 136.643 64.901 133.356 64.901H122.64C120.983 64.901 119.64 63.5579 119.64 61.901V50.2707C119.64 48.036 120.256 45.9453 121.329 44.1596C121.804 43.3682 122.696 42.9551 123.619 42.9551H139.5C141.157 42.9551 142.5 44.2982 142.5 45.9551V59.5252ZM136.624 66.3381C139.143 65.7224 142.5 67.3551 142.5 69.9485V133.224C142.5 134.881 141.157 136.224 139.5 136.224H66.8618C65.205 136.224 63.8618 134.88 63.8618 133.224V45.9551C63.8618 44.2982 65.205 42.9551 66.8618 42.9551H114.479C116.842 42.9551 118.384 45.6772 117.997 48.0082C117.875 48.7442 117.811 49.5 117.811 50.2707V63.7298C117.811 65.3867 119.154 66.7298 120.811 66.7298H133.356C134.482 66.7298 135.576 66.5941 136.624 66.3381ZM69.3477 55.7575C69.3477 54.7475 70.1664 53.9287 71.1765 53.9287H107.752C108.762 53.9287 109.581 54.7475 109.581 55.7575C109.581 56.7675 108.762 57.5863 107.752 57.5863H71.1765C70.1664 57.5863 69.3477 56.7675 69.3477 55.7575ZM69.3477 64.9015C69.3477 63.8915 70.1664 63.0727 71.1765 63.0727H107.752C108.762 63.0727 109.581 63.8915 109.581 64.9015C109.581 65.9115 108.762 66.7303 107.752 66.7303H71.1765C70.1664 66.7303 69.3477 65.9115 69.3477 64.9015ZM71.1765 72.2167C70.1664 72.2167 69.3477 73.0354 69.3477 74.0455C69.3477 75.0555 70.1664 75.8743 71.1765 75.8743H135.184C136.194 75.8743 137.013 75.0555 137.013 74.0455C137.013 73.0354 136.194 72.2167 135.184 72.2167H71.1765ZM69.3477 83.1894C69.3477 82.1794 70.1664 81.3606 71.1765 81.3606H135.184C136.194 81.3606 137.013 82.1794 137.013 83.1894C137.013 84.1995 136.194 85.0182 135.184 85.0182H71.1765C70.1664 85.0182 69.3477 84.1995 69.3477 83.1894ZM71.1765 90.5046C70.1664 90.5046 69.3477 91.3234 69.3477 92.3334C69.3477 93.3434 70.1664 94.1622 71.1765 94.1622H135.184C136.194 94.1622 137.013 93.3434 137.013 92.3334C137.013 91.3234 136.194 90.5046 135.184 90.5046H71.1765ZM69.3477 101.477C69.3477 100.467 70.1664 99.6486 71.1765 99.6486H135.184C136.194 99.6486 137.013 100.467 137.013 101.477C137.013 102.487 136.194 103.306 135.184 103.306H71.1765C70.1664 103.306 69.3477 102.487 69.3477 101.477ZM71.1765 108.793C70.1664 108.793 69.3477 109.611 69.3477 110.621C69.3477 111.631 70.1664 112.45 71.1765 112.45H135.184C136.194 112.45 137.013 111.631 137.013 110.621C137.013 109.611 136.194 108.793 135.184 108.793H71.1765ZM69.3477 119.765C69.3477 118.755 70.1664 117.937 71.1765 117.937H135.184C136.194 117.937 137.013 118.755 137.013 119.765C137.013 120.775 136.194 121.594 135.184 121.594H71.1765C70.1664 121.594 69.3477 120.775 69.3477 119.765ZM71.1765 127.081C70.1664 127.081 69.3477 127.899 69.3477 128.909C69.3477 129.919 70.1664 130.738 71.1765 130.738H135.184C136.194 130.738 137.013 129.919 137.013 128.909C137.013 127.899 136.194 127.081 135.184 127.081H71.1765Z" fill="#F8FAFD"/>
<defs>
<filter id="filter0_d_7105_939" x="0.56543" y="0.648438" width="203.872" height="190.548" filterUnits="userSpaceOnUse" color-interpolation-filters="sRGB">
<feFlood flood-opacity="0" result="BackgroundImageFix"/>
<feColorMatrix in="SourceAlpha" type="matrix" values="0 0 0 0 0 0 0 0 0 0 0 0 0 0 0 0 0 0 127 0" result="hardAlpha"/>
<feOffset dy="5"/>
<feGaussianBlur stdDeviation="5"/>
<feColorMatrix type="matrix" values="0 0 0 0 0.117647 0 0 0 0 0.584314 0 0 0 0 0.607843 0 0 0 0.5 0"/>
<feBlend mode="normal" in2="BackgroundImageFix" result="effect1_dropShadow_7105_939"/>
<feBlend mode="normal" in="SourceGraphic" in2="effect1_dropShadow_7105_939" result="shape"/>
</filter>
<linearGradient id="paint0_linear_7105_939" x1="194.438" y1="90.9226" x2="10.5654" y2="90.9226" gradientUnits="userSpaceOnUse">
<stop stop-color="#1E959B"/>
<stop offset="1" stop-color="#AFDEDE"/>
</linearGradient>
</defs>
</svg>
