<svg width="442" height="81" viewBox="0 0 442 81" fill="none" xmlns="http://www.w3.org/2000/svg">
<path d="M172.019 48.7076C168.627 52.0676 164.499 53.7476 159.635 53.7476C154.771 53.7476 150.643 52.0676 147.251 48.7076C143.891 45.2836 142.211 41.1396 142.211 36.2756C142.211 31.3796 143.891 27.2516 147.251 23.8916C150.643 20.4996 154.771 18.8036 159.635 18.8036C164.499 18.8036 168.627 20.4996 172.019 23.8916C175.411 27.2516 177.107 31.3796 177.107 36.2756C177.107 41.1716 175.411 45.3156 172.019 48.7076ZM151.907 44.1956C153.955 46.2436 156.531 47.2676 159.635 47.2676C162.739 47.2676 165.315 46.2436 167.363 44.1956C169.443 42.1156 170.483 39.4756 170.483 36.2756C170.483 33.0756 169.443 30.4356 167.363 28.3556C165.283 26.2756 162.707 25.2356 159.635 25.2356C156.563 25.2356 153.987 26.2756 151.907 28.3556C149.827 30.4356 148.787 33.0756 148.787 36.2756C148.787 39.4756 149.827 42.1156 151.907 44.1956ZM195.443 28.4036C198.675 28.4036 201.427 29.6356 203.699 32.0996C206.003 34.5636 207.155 37.5556 207.155 41.0756C207.155 44.6596 206.003 47.6676 203.699 50.0996C201.459 52.5316 198.707 53.7476 195.443 53.7476C192.083 53.7476 189.491 52.5796 187.667 50.2436V62.6756H181.475V29.0756H187.667V31.9076C189.491 29.5716 192.083 28.4036 195.443 28.4036ZM189.539 45.9716C190.787 47.2196 192.371 47.8436 194.291 47.8436C196.211 47.8436 197.795 47.2196 199.043 45.9716C200.323 44.6916 200.963 43.0596 200.963 41.0756C200.963 39.0916 200.323 37.4756 199.043 36.2276C197.795 34.9476 196.211 34.3076 194.291 34.3076C192.371 34.3076 190.787 34.9476 189.539 36.2276C188.291 37.4756 187.667 39.0916 187.667 41.0756C187.667 43.0596 188.291 44.6916 189.539 45.9716ZM234.85 43.6196H216.754C217.554 46.6276 219.81 48.1316 223.522 48.1316C225.89 48.1316 227.682 47.3316 228.898 45.7316L233.89 48.6116C231.522 52.0356 228.034 53.7476 223.426 53.7476C219.458 53.7476 216.274 52.5476 213.874 50.1476C211.474 47.7476 210.274 44.7236 210.274 41.0756C210.274 37.4916 211.458 34.4836 213.826 32.0516C216.162 29.6196 219.202 28.4036 222.946 28.4036C226.498 28.4036 229.394 29.6196 231.634 32.0516C233.938 34.4836 235.09 37.4916 235.09 41.0756C235.09 41.7476 235.01 42.5956 234.85 43.6196ZM216.658 38.8196H228.898C228.546 37.2516 227.826 36.0516 226.738 35.2196C225.682 34.3876 224.418 33.9716 222.946 33.9716C221.282 33.9716 219.906 34.4036 218.818 35.2676C217.73 36.0996 217.01 37.2836 216.658 38.8196ZM252.756 28.4036C255.412 28.4036 257.572 29.2836 259.236 31.0436C260.964 32.8356 261.828 35.2676 261.828 38.3396V53.0756H255.636V39.1076C255.636 37.5396 255.204 36.3236 254.34 35.4596C253.508 34.5956 252.356 34.1636 250.884 34.1636C249.252 34.1636 247.956 34.6756 246.996 35.6996C246.068 36.6916 245.604 38.1636 245.604 40.1156V53.0756H239.412V29.0756H245.604V31.7636C247.076 29.5236 249.46 28.4036 252.756 28.4036ZM285.499 32.0516V29.0756H291.547V51.9236C291.547 55.6036 290.315 58.4356 287.851 60.4196C285.419 62.3716 282.475 63.3476 279.019 63.3476C273.579 63.3476 269.787 61.3956 267.643 57.4916L272.923 54.4676C274.107 56.7076 276.203 57.8276 279.211 57.8276C281.163 57.8276 282.699 57.3156 283.819 56.2916C284.939 55.2676 285.499 53.8116 285.499 51.9236V49.3316C283.675 51.7636 281.115 52.9796 277.819 52.9796C274.427 52.9796 271.579 51.7956 269.275 49.4276C267.003 46.9956 265.867 44.0836 265.867 40.6916C265.867 37.2996 267.019 34.4036 269.323 32.0036C271.627 29.6036 274.459 28.4036 277.819 28.4036C281.115 28.4036 283.675 29.6196 285.499 32.0516ZM283.579 45.4436C284.859 44.1956 285.499 42.6116 285.499 40.6916C285.499 38.7716 284.859 37.2196 283.579 36.0356C282.331 34.7876 280.731 34.1636 278.779 34.1636C276.859 34.1636 275.243 34.7876 273.931 36.0356C272.683 37.2196 272.059 38.7716 272.059 40.6916C272.059 42.6116 272.683 44.1956 273.931 45.4436C275.211 46.6596 276.827 47.2676 278.779 47.2676C280.731 47.2676 282.331 46.6596 283.579 45.4436ZM300.234 26.1956C299.21 26.1956 298.314 25.8276 297.546 25.0916C296.81 24.3236 296.442 23.4276 296.442 22.4036C296.442 21.3796 296.81 20.4836 297.546 19.7156C298.314 18.9476 299.21 18.5636 300.234 18.5636C301.29 18.5636 302.186 18.9476 302.922 19.7156C303.69 20.4836 304.074 21.3796 304.074 22.4036C304.074 23.4276 303.69 24.3236 302.922 25.0916C302.186 25.8276 301.29 26.1956 300.234 26.1956ZM303.354 53.0756H297.162V29.0756H303.354V53.0756ZM321.934 18.8036V24.7556C318.542 24.5316 316.846 25.8916 316.846 28.8356V29.0756H321.934V35.0276H316.846V53.0756H310.654V35.0276H307.198V29.0756H310.654V28.8356C310.654 25.4116 311.598 22.8356 313.486 21.1076C315.406 19.3476 318.222 18.5796 321.934 18.8036ZM339.25 29.0756V35.0276H333.826V45.0116C333.826 45.8436 334.034 46.4516 334.45 46.8356C334.866 47.2196 335.474 47.4436 336.274 47.5076C337.074 47.5396 338.066 47.5236 339.25 47.4596V53.0756C335.058 53.5556 332.066 53.1716 330.274 51.9236C328.514 50.6436 327.634 48.3396 327.634 45.0116V35.0276H323.458V29.0756H327.634V24.2276L333.826 22.3556V29.0756H339.25ZM351.67 49.6196C351.67 50.7396 351.27 51.6996 350.47 52.4996C349.67 53.2996 348.71 53.6996 347.59 53.6996C346.47 53.6996 345.51 53.2996 344.71 52.4996C343.91 51.6996 343.51 50.7396 343.51 49.6196C343.51 48.4996 343.91 47.5396 344.71 46.7396C345.51 45.9396 346.47 45.5396 347.59 45.5396C348.71 45.5396 349.67 45.9396 350.47 46.7396C351.27 47.5396 351.67 48.4996 351.67 49.6196ZM357.122 53.0756V19.4756H363.746V53.0756H357.122ZM390.126 50.0996C387.694 52.5316 384.686 53.7476 381.102 53.7476C377.518 53.7476 374.51 52.5316 372.078 50.0996C369.646 47.6676 368.43 44.6596 368.43 41.0756C368.43 37.5236 369.646 34.5316 372.078 32.0996C374.542 29.6356 377.55 28.4036 381.102 28.4036C384.654 28.4036 387.662 29.6356 390.126 32.0996C392.59 34.5636 393.822 37.5556 393.822 41.0756C393.822 44.6276 392.59 47.6356 390.126 50.0996ZM376.446 45.8276C377.694 47.0756 379.246 47.6996 381.102 47.6996C382.958 47.6996 384.51 47.0756 385.758 45.8276C387.006 44.5796 387.63 42.9956 387.63 41.0756C387.63 39.1556 387.006 37.5716 385.758 36.3236C384.51 35.0756 382.958 34.4516 381.102 34.4516C379.246 34.4516 377.694 35.0756 376.446 36.3236C375.23 37.6036 374.622 39.1876 374.622 41.0756C374.622 42.9636 375.23 44.5476 376.446 45.8276Z" fill="#1E959B"/>
<path d="M54.7992 25.5675C54.7992 22.3126 53.5348 19.2556 51.239 16.9598C48.9432 14.6639 45.8862 13.3996 42.6314 13.3996C42.6312 13.3996 42.6315 13.3996 42.6314 13.3996C39.3767 13.3996 36.3194 14.664 34.0238 16.9598L30.2262 20.7573C29.7993 21.1841 29.7993 21.8761 30.2262 22.3031C30.6531 22.7298 31.3452 22.7299 31.7719 22.3031L35.5695 18.5056C37.4524 16.6225 39.9603 15.5855 42.6314 15.5855C45.3024 15.5855 47.8103 16.6226 49.6933 18.5056C51.5763 20.3886 52.6133 22.8965 52.6133 25.5675C52.6133 28.2386 51.5763 30.7464 49.6933 32.6293L39.2279 43.0947C39.2304 42.9921 39.2317 42.8892 39.2317 42.7862C39.2317 41.1694 38.9195 39.6016 38.3241 38.1516L46.7698 29.7058C47.8738 28.6018 48.4818 27.1321 48.4818 25.5674C48.4818 24.0027 47.8739 22.5328 46.7699 21.4289C44.4879 19.147 40.7748 19.147 38.4929 21.4289L24.1188 35.8028C21.8369 38.0849 21.8369 41.7979 24.1188 44.0799C25.2598 45.2208 26.7586 45.7913 28.2574 45.7913C28.622 45.7913 28.9866 45.7569 29.3461 45.6894L25.4989 49.5366C23.8759 49.0729 22.3974 48.2054 21.1953 47.0034C19.3123 45.1204 18.2754 42.6125 18.2754 39.9414C18.2754 37.2704 19.3124 34.7624 21.1953 32.8795L24.8178 29.257C25.2446 28.8302 25.2447 28.1381 24.8179 27.7112C24.391 27.2846 23.699 27.2845 23.2722 27.7112L19.6496 31.3337C18.355 32.6284 17.3884 34.1653 16.7915 35.843L4.04957 48.5851C1.75374 50.881 0.489258 53.938 0.489258 57.1929C0.489258 60.4477 1.75363 63.5047 4.04946 65.8005C6.34539 68.0963 9.40238 69.3607 12.6572 69.3607H12.6573C15.912 69.3607 18.9692 68.0962 21.2649 65.8005L35.6715 51.394C36.9662 50.0993 37.9327 48.5624 38.5296 46.8847L51.239 34.1751C53.5348 31.8793 54.7992 28.8223 54.7992 25.5675ZM40.0386 22.9747C41.4683 21.5452 43.7945 21.5452 45.2241 22.9747C45.9153 23.6658 46.2959 24.5867 46.2959 25.5675C46.2959 26.5484 45.9153 27.469 45.2241 28.1602L37.2569 36.1274C36.8016 35.4326 36.2723 34.7793 35.6715 34.1786C34.4876 32.9948 33.0831 32.0775 31.5435 31.4699L40.0386 22.9747ZM25.6647 42.5342C24.9837 41.8534 24.628 40.9692 24.5956 40.0752C26.0328 38.7654 28.2677 38.8047 29.6566 40.1936C30.3375 40.8745 30.6934 41.7589 30.7256 42.6528C30.0503 43.2686 29.1806 43.606 28.2575 43.606C27.2765 43.6059 26.3558 43.2253 25.6647 42.5342ZM23.7776 51.2579L15.25 59.7856C14.5589 60.4767 13.638 60.8573 12.6572 60.8573C11.6763 60.8573 10.7556 60.4768 10.0645 59.7856C9.37331 59.0945 8.99273 58.1736 8.99273 57.1928C8.99273 56.2119 9.37331 55.2912 10.0645 54.6001L18.0642 46.6004C18.5196 47.2952 19.0489 47.9485 19.6496 48.5492C20.8335 49.733 22.2381 50.6503 23.7776 51.2579ZM34.1257 49.8483L19.7192 64.2547C17.8362 66.1378 15.3282 67.1747 12.6572 67.1747C9.98615 67.1747 7.47828 66.1377 5.59527 64.2547C3.71227 62.3717 2.67535 59.8638 2.67535 57.1929C2.67535 54.5218 3.71238 52.0138 5.59538 50.131L16.0933 39.633C16.0908 39.7356 16.0895 39.8385 16.0895 39.9415C16.0895 41.5583 16.4018 43.1261 16.9971 44.5762L8.51892 53.0545C7.41489 54.1585 6.80685 55.6282 6.80685 57.1929C6.80685 58.7576 7.41489 60.2275 8.51881 61.3314C9.65989 62.4722 11.1586 63.0428 12.6573 63.0428C14.156 63.0428 15.6548 62.4722 16.7958 61.3314L31.2024 46.9249C33.4844 44.6428 33.4844 40.9298 31.2024 38.6479C29.7838 37.2293 27.8123 36.6932 25.9752 37.0383L29.8224 33.1911C31.4454 33.6548 32.9239 34.5223 34.1259 35.7243C36.0088 37.6072 37.0459 40.1152 37.0459 42.7863C37.0458 45.4573 36.0087 47.9653 34.1257 49.8483Z" fill="#1E959B"/>
<path d="M27.5227 26.099C27.8102 26.099 28.0921 25.9821 28.2954 25.7787C28.4987 25.5754 28.6157 25.2933 28.6157 25.006C28.6157 24.7185 28.4987 24.4365 28.2954 24.2334C28.0921 24.0301 27.8102 23.913 27.5227 23.913C27.2352 23.913 26.9532 24.0299 26.7499 24.2334C26.5466 24.4365 26.4297 24.7185 26.4297 25.006C26.4297 25.2934 26.5466 25.5754 26.7499 25.7787C26.9532 25.9821 27.2352 26.099 27.5227 26.099Z" fill="#1E959B"/>
</svg>
