<svg width="124" height="95" viewBox="0 0 124 95" fill="none" xmlns="http://www.w3.org/2000/svg">
<g clip-path="url(#clip0_7105_878)">
<path d="M79.916 48.8218L115.135 71.0864V25.6169L79.916 48.8218Z" fill="#1E959B"/>
<path d="M10.667 25.6169V71.0864L45.8856 48.8218L10.667 25.6169Z" fill="#1E959B"/>
<path d="M108.604 12.3757H17.1952C13.9371 12.3757 11.3515 14.8046 10.8618 17.9321L62.8997 52.217L114.938 17.9321C114.448 14.8046 111.862 12.3757 108.604 12.3757Z" fill="#1E959B"/>
<path d="M73.9352 52.7656L64.6963 58.8508C64.1479 59.2099 63.5276 59.3862 62.9008 59.3862C62.274 59.3862 61.6537 59.2099 61.1052 58.8508L51.8664 52.759L10.876 78.6866C11.3787 81.7879 13.9512 84.1972 17.1963 84.1972H108.605C111.85 84.1972 114.423 81.7879 114.926 78.6866L73.9352 52.7656Z" fill="#1E959B"/>
</g>
<defs>
<clipPath id="clip0_7105_878">
<rect width="123.355" height="93.2686" fill="white" transform="translate(0.254395 0.972168)"/>
</clipPath>
</defs>
</svg>
