<svg width="541" height="147" viewBox="0 0 541 147" fill="none" xmlns="http://www.w3.org/2000/svg">
<g opacity="0.5">
<path d="M125.249 0.214661H21.3215C9.54756 0.214661 0.00292969 9.75929 0.00292969 21.5332V125.461C0.00292969 137.235 9.54756 146.78 21.3215 146.78H125.249C137.023 146.78 146.568 137.235 146.568 125.461V21.5332C146.568 9.75929 137.023 0.214661 125.249 0.214661Z" fill="#1E959B"/>
<path d="M85.0593 55.8804L82.0865 57.3623L80.6205 54.8001L82.1477 54.0403V40.5942L71.957 35.4991L61.7664 40.5942V54.0403L63.2936 54.8046L61.8275 57.3623L58.8549 55.8804L48.6641 60.9758V74.4217L58.8549 79.5168L69.0454 74.4217V70.6102H74.8688V74.4217L85.0593 79.5168L95.2501 74.4217V60.9758L85.0593 55.8804ZM76.5634 53.5772L73.4127 55.1524V46.7611L79.2362 43.8496V52.2408L79.1719 52.2728L77.5882 49.5067L75.0609 50.954L76.5634 53.5772ZM71.957 38.7542L77.4366 41.4941L71.957 44.2338L66.4773 41.4941L71.957 38.7542ZM64.678 43.8496L70.5012 46.7611V55.1524L67.3508 53.5772L68.8532 50.9569L66.3259 49.5011L64.742 52.2669L64.678 52.2408V43.8496ZM57.3988 75.5337L51.5756 72.6221V64.2309L57.3988 67.1424V75.5337ZM53.3752 61.8754L58.8549 59.1355L64.3345 61.8754L58.8549 64.6151L53.3752 61.8754ZM66.1338 67.6986H63.2222V70.6102H66.1338V72.6221L60.3106 75.5337V67.1424L66.1338 64.2309V67.6986ZM74.8688 67.6986H69.0454V60.9758L64.4363 58.6726L65.9022 56.1104L71.957 59.1355L78.0117 56.109L79.4779 58.6713L74.8688 60.9758V67.6986ZM83.6035 75.5337L77.7804 72.6221V70.6102H80.692V67.6986H77.7804V64.2309L83.6035 67.1424V75.5337ZM79.5797 61.8754L85.0593 59.1355L90.539 61.8754L85.0593 64.6151L79.5797 61.8754ZM92.3385 72.6221L86.5151 75.5337V67.1424L92.3385 64.2309V72.6221Z" fill="white"/>
<path d="M57.3989 50.2288H54.4873V53.1404H57.3989V50.2288Z" fill="white"/>
<path d="M73.4126 77.8897H70.501V80.8016H73.4126V77.8897Z" fill="white"/>
<path d="M87.9711 50.2288H85.0596V53.1404H87.9711V50.2288Z" fill="white"/>
<path d="M21.4012 102.998C21.4012 100.698 20.5546 99.5477 18.8616 99.5477C18.4942 99.5477 18.1268 99.5956 17.7595 99.6916C17.4081 99.7872 17.1206 99.9071 16.897 100.051V106.544C17.0727 106.576 17.2963 106.608 17.5678 106.64C17.8393 106.656 18.1348 106.664 18.4543 106.664C19.4286 106.664 20.1633 106.328 20.6585 105.657C21.1536 104.986 21.4012 104.1 21.4012 102.998ZM25.0429 103.094C25.0429 104.1 24.8911 105.01 24.5876 105.825C24.3001 106.64 23.8769 107.334 23.3178 107.909C22.7588 108.484 22.072 108.932 21.2574 109.251C20.4428 109.554 19.5164 109.706 18.4782 109.706C18.047 109.706 17.5918 109.682 17.1126 109.634C16.6494 109.602 16.1862 109.554 15.723 109.491C15.2758 109.427 14.8445 109.355 14.4292 109.275C14.014 109.179 13.6466 109.083 13.3271 108.988V91.3779L16.897 90.8028V97.08C17.2963 96.9044 17.7115 96.7685 18.1428 96.6729C18.5741 96.5769 19.0373 96.529 19.5324 96.529C20.4269 96.529 21.2175 96.6888 21.9043 97.0081C22.5911 97.3116 23.1661 97.7508 23.6293 98.3258C24.0925 98.9009 24.4439 99.5956 24.6835 100.41C24.9231 101.209 25.0429 102.103 25.0429 103.094Z" fill="white"/>
<path d="M32.8166 109.634C31.7784 109.618 30.9318 109.507 30.2768 109.299C29.638 109.091 29.1269 108.804 28.7434 108.436C28.3762 108.053 28.1207 107.598 27.9768 107.071C27.8491 106.528 27.7852 105.921 27.7852 105.25V91.3779L31.3549 90.8028V104.531C31.3549 104.851 31.3789 105.138 31.4269 105.394C31.4749 105.649 31.5625 105.865 31.6904 106.04C31.8341 106.216 32.0339 106.36 32.2895 106.472C32.5451 106.584 32.8883 106.656 33.3197 106.688L32.8166 109.634Z" fill="white"/>
<path d="M47.1539 103.069C47.1539 104.06 47.0103 104.97 46.7227 105.801C46.4352 106.615 46.02 107.318 45.4769 107.909C44.9339 108.484 44.2791 108.931 43.5124 109.251C42.7615 109.57 41.9152 109.73 40.9726 109.73C40.0463 109.73 39.1997 109.57 38.433 109.251C37.6824 108.931 37.0356 108.484 36.4925 107.909C35.9494 107.318 35.5263 106.615 35.2227 105.801C34.9192 104.97 34.7676 104.06 34.7676 103.069C34.7676 102.079 34.9192 101.177 35.2227 100.362C35.5422 99.5473 35.9734 98.8526 36.5165 98.2775C37.0756 97.7027 37.7303 97.2553 38.481 96.9361C39.2477 96.6166 40.0783 96.4567 40.9726 96.4567C41.8832 96.4567 42.7138 96.6166 43.4645 96.9361C44.2311 97.2553 44.8859 97.7027 45.429 98.2775C45.9721 98.8526 46.3952 99.5473 46.6988 100.362C47.0023 101.177 47.1539 102.079 47.1539 103.069ZM43.5124 103.069C43.5124 101.967 43.2886 101.105 42.8414 100.482C42.4103 99.8429 41.7872 99.5233 40.9726 99.5233C40.1582 99.5233 39.5272 99.8429 39.0801 100.482C38.6326 101.105 38.4091 101.967 38.4091 103.069C38.4091 104.171 38.6326 105.05 39.0801 105.705C39.5272 106.344 40.1582 106.663 40.9726 106.663C41.7872 106.663 42.4103 106.344 42.8414 105.705C43.2886 105.05 43.5124 104.171 43.5124 103.069Z" fill="white"/>
<path d="M49.3203 103.093C49.3203 102.183 49.4639 101.328 49.7515 100.53C50.055 99.7152 50.4862 99.0122 51.0452 98.4214C51.6043 97.8143 52.2831 97.3352 53.0817 96.9837C53.8803 96.6325 54.7909 96.4566 55.8131 96.4566C56.4839 96.4566 57.0989 96.5206 57.6577 96.6485C58.2168 96.7601 58.7599 96.928 59.287 97.1516L58.5443 100.003C58.2088 99.8748 57.8416 99.7631 57.4421 99.6672C57.0429 99.5713 56.5958 99.5233 56.1004 99.5233C55.0465 99.5233 54.2558 99.8508 53.7287 100.506C53.2176 101.161 52.9621 102.023 52.9621 103.093C52.9621 104.227 53.2016 105.106 53.6808 105.729C54.1759 106.352 55.0305 106.663 56.2443 106.663C56.6755 106.663 57.1386 106.623 57.634 106.543C58.1291 106.463 58.5843 106.336 58.9995 106.16L59.5026 109.083C59.0874 109.259 58.5683 109.41 57.9453 109.538C57.3225 109.666 56.6355 109.73 55.8848 109.73C54.735 109.73 53.7447 109.562 52.9141 109.227C52.0835 108.875 51.3967 108.404 50.8537 107.813C50.3266 107.222 49.9351 106.527 49.6795 105.729C49.44 104.914 49.3203 104.036 49.3203 103.093Z" fill="white"/>
<path d="M65.4692 101.345C65.8207 100.961 66.1799 100.562 66.5474 100.147C66.9306 99.7315 67.2981 99.3241 67.6496 98.9249C68.0008 98.5094 68.3283 98.1182 68.6318 97.7508C68.951 97.3836 69.2226 97.064 69.4464 96.7925H73.687C72.8404 97.7668 72.01 98.7013 71.1954 99.5956C70.3967 100.474 69.5181 101.385 68.5599 102.327C69.039 102.758 69.5341 103.277 70.0452 103.884C70.5563 104.475 71.0515 105.09 71.5306 105.729C72.01 106.368 72.4492 107.007 72.8483 107.646C73.2478 108.285 73.583 108.868 73.8546 109.395H69.7577C69.5021 108.98 69.2066 108.524 68.8714 108.029C68.5519 107.518 68.2084 107.015 67.8412 106.52C67.4737 106.009 67.0825 105.521 66.667 105.058C66.2678 104.595 65.8684 104.204 65.4692 103.884V109.395H61.8994V91.3779L65.4692 90.8028V101.345Z" fill="white"/>
<path d="M74.3086 103.093C74.3086 102.183 74.4522 101.328 74.7398 100.53C75.0433 99.7152 75.4745 99.0122 76.0335 98.4214C76.5926 97.8143 77.2713 97.3352 78.07 96.9837C78.8686 96.6325 79.7792 96.4566 80.8014 96.4566C81.4722 96.4566 82.0872 96.5206 82.646 96.6485C83.2051 96.7601 83.7482 96.928 84.2753 97.1516L83.5326 100.003C83.1971 99.8748 82.8299 99.7631 82.4304 99.6672C82.0312 99.5713 81.5841 99.5233 81.0887 99.5233C80.0348 99.5233 79.2441 99.8508 78.717 100.506C78.2059 101.161 77.9503 102.023 77.9503 103.093C77.9503 104.227 78.1899 105.106 78.669 105.729C79.1642 106.352 80.0188 106.663 81.2326 106.663C81.6638 106.663 82.1269 106.623 82.622 106.543C83.1174 106.463 83.5726 106.336 83.9877 106.16L84.4909 109.083C84.0757 109.259 83.5566 109.41 82.9335 109.538C82.3108 109.666 81.6238 109.73 80.8731 109.73C79.7232 109.73 78.733 109.562 77.9024 109.227C77.0717 108.875 76.385 108.404 75.8419 107.813C75.3148 107.222 74.9234 106.527 74.6678 105.729C74.4282 104.914 74.3086 104.036 74.3086 103.093Z" fill="white"/>
<path d="M86.8877 109.395V91.3779L90.4575 90.8028V96.8405C90.6971 96.7605 91.0006 96.6888 91.3678 96.6249C91.7513 96.5449 92.1187 96.505 92.47 96.505C93.4922 96.505 94.3388 96.6489 95.0095 96.9364C95.6965 97.2077 96.2393 97.5992 96.6388 98.1103C97.054 98.6214 97.3415 99.2284 97.5014 99.9311C97.677 100.634 97.7649 101.416 97.7649 102.279V109.395H94.1949V102.71C94.1949 101.56 94.0433 100.746 93.7397 100.267C93.4522 99.7872 92.9091 99.5477 92.1107 99.5477C91.7912 99.5477 91.4877 99.5796 91.2002 99.6436C90.9286 99.6916 90.6811 99.7475 90.4575 99.8112V109.395H86.8877Z" fill="white"/>
<path d="M105.811 106.903C106.163 106.903 106.498 106.895 106.818 106.879C107.137 106.863 107.393 106.839 107.584 106.807V104.1C107.441 104.068 107.225 104.036 106.938 104.004C106.65 103.972 106.387 103.956 106.147 103.956C105.811 103.956 105.492 103.98 105.189 104.028C104.901 104.06 104.646 104.132 104.422 104.243C104.198 104.355 104.023 104.507 103.895 104.698C103.767 104.89 103.703 105.13 103.703 105.417C103.703 105.976 103.887 106.368 104.254 106.591C104.638 106.799 105.157 106.903 105.811 106.903ZM105.524 96.4566C106.578 96.4566 107.457 96.5765 108.159 96.8161C108.862 97.0557 109.421 97.3992 109.837 97.8463C110.268 98.2935 110.571 98.8366 110.747 99.4756C110.923 100.114 111.01 100.825 111.01 101.608V109.035C110.499 109.147 109.789 109.275 108.878 109.418C107.968 109.578 106.866 109.658 105.572 109.658C104.757 109.658 104.015 109.586 103.344 109.442C102.689 109.298 102.122 109.067 101.643 108.748C101.163 108.412 100.796 107.981 100.541 107.454C100.285 106.927 100.157 106.28 100.157 105.513C100.157 104.778 100.301 104.155 100.589 103.644C100.892 103.133 101.291 102.726 101.786 102.422C102.282 102.119 102.849 101.903 103.487 101.776C104.126 101.632 104.789 101.56 105.476 101.56C105.939 101.56 106.347 101.584 106.698 101.632C107.065 101.664 107.361 101.712 107.584 101.776V101.44C107.584 100.833 107.401 100.346 107.034 99.9787C106.666 99.6112 106.027 99.4276 105.117 99.4276C104.51 99.4276 103.911 99.4756 103.32 99.5712C102.729 99.6512 102.218 99.7711 101.786 99.9307L101.331 97.0557C101.539 96.9917 101.794 96.928 102.098 96.8641C102.417 96.7841 102.761 96.7202 103.128 96.6725C103.495 96.6085 103.879 96.5605 104.278 96.5286C104.694 96.4806 105.109 96.4566 105.524 96.4566Z" fill="white"/>
<path d="M117.809 109.394H114.239V96.7922H117.809V109.394ZM118.144 93.1505C118.144 93.8055 117.929 94.3246 117.498 94.7078C117.082 95.0752 116.587 95.2589 116.012 95.2589C115.437 95.2589 114.934 95.0752 114.503 94.7078C114.087 94.3246 113.88 93.8055 113.88 93.1505C113.88 92.4957 114.087 91.9846 114.503 91.6171C114.934 91.2339 115.437 91.0421 116.012 91.0421C116.587 91.0421 117.082 91.2339 117.498 91.6171C117.929 91.9846 118.144 92.4957 118.144 93.1505Z" fill="white"/>
<path d="M121.163 97.2234C121.77 97.0478 122.553 96.8882 123.511 96.7443C124.469 96.5846 125.476 96.5047 126.53 96.5047C127.6 96.5047 128.487 96.6486 129.189 96.9361C129.908 97.2074 130.475 97.5989 130.89 98.11C131.306 98.6211 131.601 99.2281 131.777 99.9309C131.952 100.634 132.04 101.416 132.04 102.279V109.394H128.471V102.71C128.471 101.56 128.319 100.745 128.015 100.266C127.712 99.787 127.145 99.5474 126.314 99.5474C126.059 99.5474 125.787 99.5634 125.5 99.5954C125.212 99.6113 124.956 99.6353 124.733 99.6673V109.394H121.163V97.2234Z" fill="white"/>
</g>
<g opacity="0.5">
<path d="M322.445 0.2146H218.517C206.743 0.2146 197.198 9.75923 197.198 21.5331V125.461C197.198 137.235 206.743 146.779 218.517 146.779H322.445C334.218 146.779 343.763 137.235 343.763 125.461V21.5331C343.763 9.75923 334.218 0.2146 322.445 0.2146Z" fill="#1E959B"/>
<path d="M270.482 24.6421C253.225 24.6421 246.897 33.1294 246.897 39.4058V49.9119H268.797V53.2813H236.391C232.661 53.2813 228.834 54.6947 226.066 58.0063C223.298 61.3176 221.627 66.373 221.627 73.4971C221.627 80.6209 223.298 85.6766 226.066 88.9879C228.834 92.2992 232.661 93.7129 236.391 93.7129H246.897V107.588C246.897 113.865 253.225 122.352 270.482 122.352C287.738 122.352 294.067 113.865 294.067 107.588V97.0823H272.166V93.7129H304.573C308.303 93.7129 312.13 92.2992 314.898 88.9879C317.666 85.6766 319.337 80.6209 319.337 73.4971C319.337 66.373 317.666 61.3176 314.898 58.0063C312.13 54.6947 308.303 53.2813 304.573 53.2813H294.07V39.4058C294.069 36.1835 292.492 32.4107 288.73 29.5218C284.969 26.6325 279.103 24.6421 270.482 24.6421ZM270.482 28.0113C278.584 28.0113 283.669 29.8828 286.677 32.1935C289.685 34.5039 290.7 37.2676 290.701 39.4058V53.2813H290.698V64.9191C290.698 66.3024 290.2 67.619 289.375 68.7228C288.274 70.1943 286.595 71.2882 284.752 71.6677C284.291 71.7626 283.822 71.8124 283.347 71.8124H257.617C251.981 71.8124 246.897 76.3295 246.897 82.0749V90.3435H236.391C233.473 90.3435 230.762 89.3501 228.652 86.8262C226.542 84.3024 224.996 80.0946 224.996 73.4971C224.996 66.8995 226.542 62.6918 228.652 60.168C230.762 57.6441 233.473 56.6504 236.391 56.6504H272.166V46.5425H250.266V39.4058C250.266 35.3889 254.291 28.0113 270.482 28.0113ZM261.216 34.7501C260.099 34.7501 259.028 35.1938 258.238 35.9837C257.448 36.7735 257.005 37.8445 257.005 38.9616C257.005 40.0787 257.448 41.15 258.238 41.9398C259.028 42.7297 260.099 43.1734 261.216 43.1734C262.333 43.1734 263.405 42.7297 264.194 41.9398C264.984 41.15 265.428 40.0787 265.428 38.9616C265.428 37.8445 264.984 36.7735 264.194 35.9837C263.405 35.1938 262.333 34.7501 261.216 34.7501ZM294.07 56.6504H304.573C307.491 56.6504 310.202 57.6441 312.312 60.168C314.422 62.6918 315.968 66.8995 315.968 73.4971C315.968 80.0946 314.422 84.3024 312.312 86.8262C310.202 89.3501 307.491 90.3435 304.573 90.3435H268.797V100.451H290.698V107.588C290.698 111.605 286.673 118.983 270.482 118.983C254.291 118.983 250.266 111.605 250.266 107.588V82.0749C250.266 81.6139 250.323 81.16 250.427 80.7193C251.159 77.6348 254.293 75.1818 257.617 75.1818H283.347C283.7 75.1818 284.05 75.1637 284.397 75.129C286.477 74.9222 288.439 74.1071 290.046 72.8621H290.049C290.317 72.6548 290.573 72.4344 290.819 72.2039H290.823C292.799 70.3566 294.07 67.792 294.07 64.9191V56.6504ZM242.916 60.1349C242.469 60.1418 242.044 60.3257 241.733 60.6458C241.422 60.9661 241.251 61.3964 241.257 61.8428V65.2119C241.254 65.4352 241.295 65.6569 241.378 65.864C241.462 66.0711 241.585 66.2597 241.742 66.4188C241.899 66.5776 242.085 66.7039 242.291 66.79C242.497 66.8764 242.719 66.9206 242.942 66.9206C243.165 66.9206 243.386 66.8764 243.592 66.79C243.798 66.7039 243.985 66.5776 244.141 66.4188C244.298 66.2597 244.422 66.0711 244.505 65.864C244.588 65.6569 244.63 65.4352 244.626 65.2119V61.8428C244.63 61.6173 244.587 61.3935 244.502 61.1848C244.417 60.9759 244.291 60.7865 244.132 60.6271C243.972 60.4677 243.782 60.3422 243.574 60.2578C243.365 60.1733 243.141 60.1314 242.916 60.1349ZM250.605 60.1349C250.159 60.1418 249.733 60.3257 249.423 60.6458C249.112 60.9661 248.94 61.3964 248.947 61.8428V65.2119C248.943 65.4352 248.985 65.6569 249.068 65.864C249.151 66.0711 249.275 66.2597 249.432 66.4188C249.588 66.5776 249.775 66.7039 249.981 66.79C250.187 66.8764 250.408 66.9206 250.631 66.9206C250.855 66.9206 251.075 66.8764 251.281 66.79C251.487 66.7039 251.674 66.5776 251.831 66.4188C251.988 66.2597 252.111 66.0711 252.195 65.864C252.278 65.6569 252.319 65.4352 252.316 65.2119V61.8428C252.319 61.6173 252.277 61.3935 252.192 61.1848C252.107 60.9759 251.981 60.7865 251.821 60.6271C251.662 60.4677 251.472 60.3422 251.263 60.2578C251.054 60.1733 250.83 60.1314 250.605 60.1349ZM258.298 60.1349C257.852 60.1418 257.426 60.3257 257.115 60.6458C256.805 60.9661 256.633 61.3964 256.639 61.8428V65.2119C256.636 65.4352 256.677 65.6569 256.761 65.864C256.844 66.0711 256.968 66.2597 257.124 66.4188C257.281 66.5776 257.468 66.7039 257.674 66.79C257.88 66.8764 258.101 66.9206 258.324 66.9206C258.547 66.9206 258.768 66.8764 258.974 66.79C259.18 66.7039 259.367 66.5776 259.524 66.4188C259.681 66.2597 259.804 66.0711 259.888 65.864C259.971 65.6569 260.012 65.4352 260.009 65.2119V61.8428C260.012 61.6173 259.97 61.3935 259.885 61.1848C259.8 60.9759 259.674 60.7865 259.514 60.6271C259.355 60.4677 259.165 60.3422 258.956 60.2578C258.747 60.1733 258.523 60.1314 258.298 60.1349ZM265.987 60.1349C265.541 60.1418 265.116 60.3257 264.805 60.6458C264.494 60.9661 264.323 61.3964 264.329 61.8428V65.2119C264.326 65.4352 264.367 65.6569 264.45 65.864C264.534 66.0711 264.657 66.2597 264.814 66.4188C264.971 66.5776 265.157 66.7039 265.363 66.79C265.569 66.8764 265.79 66.9206 266.014 66.9206C266.237 66.9206 266.458 66.8764 266.664 66.79C266.87 66.7039 267.057 66.5776 267.213 66.4188C267.37 66.2597 267.494 66.0711 267.577 65.864C267.66 65.6569 267.702 65.4352 267.698 65.2119V61.8428C267.701 61.6173 267.659 61.3935 267.574 61.1848C267.489 60.9759 267.363 60.7865 267.204 60.6271C267.044 60.4677 266.854 60.3422 266.645 60.2578C266.437 60.1733 266.213 60.1314 265.987 60.1349ZM279.978 80.2127C279.532 80.2196 279.106 80.4032 278.795 80.7235C278.484 81.0436 278.313 81.474 278.32 81.9203V85.2897C278.316 85.5128 278.358 85.7345 278.441 85.9415C278.524 86.1488 278.648 86.3372 278.805 86.4963C278.961 86.6554 279.148 86.7815 279.354 86.8678C279.56 86.9539 279.781 86.9984 280.004 86.9984C280.228 86.9984 280.448 86.9539 280.654 86.8678C280.86 86.7815 281.047 86.6554 281.204 86.4963C281.361 86.3372 281.484 86.1488 281.567 85.9415C281.651 85.7345 281.692 85.5128 281.689 85.2897V81.9203C281.692 81.6949 281.65 81.4713 281.565 81.2624C281.48 81.0537 281.354 80.864 281.194 80.7046C281.035 80.5455 280.845 80.42 280.636 80.3353C280.427 80.2508 280.203 80.2092 279.978 80.2127ZM287.667 80.2127C287.221 80.2196 286.796 80.4032 286.485 80.7235C286.174 81.0436 286.003 81.474 286.009 81.9203V85.2897C286.006 85.5128 286.047 85.7345 286.13 85.9415C286.213 86.1488 286.337 86.3372 286.494 86.4963C286.651 86.6554 286.837 86.7815 287.043 86.8678C287.249 86.9539 287.47 86.9984 287.694 86.9984C287.917 86.9984 288.138 86.9539 288.344 86.8678C288.55 86.7815 288.737 86.6554 288.894 86.4963C289.05 86.3372 289.174 86.1488 289.257 85.9415C289.34 85.7345 289.381 85.5128 289.378 85.2897V81.9203C289.381 81.6949 289.339 81.4713 289.254 81.2624C289.169 81.0537 289.044 80.864 288.884 80.7046C288.724 80.5455 288.535 80.42 288.325 80.3353C288.116 80.2508 287.893 80.2092 287.667 80.2127ZM295.36 80.2127C294.914 80.2196 294.489 80.4032 294.178 80.7235C293.867 81.0436 293.696 81.474 293.702 81.9203V85.2897C293.699 85.5128 293.74 85.7345 293.823 85.9415C293.906 86.1488 294.03 86.3372 294.187 86.4963C294.344 86.6554 294.53 86.7815 294.736 86.8678C294.942 86.9539 295.163 86.9984 295.387 86.9984C295.61 86.9984 295.831 86.9539 296.037 86.8678C296.243 86.7815 296.43 86.6554 296.586 86.4963C296.743 86.3372 296.867 86.1488 296.95 85.9415C297.033 85.7345 297.074 85.5128 297.071 85.2897V81.9203C297.074 81.6949 297.032 81.4713 296.947 81.2624C296.862 81.0537 296.736 80.864 296.577 80.7046C296.417 80.5455 296.227 80.42 296.018 80.3353C295.809 80.2508 295.586 80.2092 295.36 80.2127ZM303.05 80.2127C302.603 80.2196 302.178 80.4032 301.867 80.7235C301.556 81.0436 301.385 81.474 301.391 81.9203V85.2897C301.388 85.5128 301.429 85.7345 301.513 85.9415C301.596 86.1488 301.72 86.3372 301.876 86.4963C302.033 86.6554 302.22 86.7815 302.426 86.8678C302.632 86.9539 302.853 86.9984 303.076 86.9984C303.299 86.9984 303.52 86.9539 303.726 86.8678C303.932 86.7815 304.119 86.6554 304.276 86.4963C304.433 86.3372 304.556 86.1488 304.639 85.9415C304.723 85.7345 304.764 85.5128 304.761 85.2897V81.9203C304.764 81.6949 304.722 81.4713 304.637 81.2624C304.552 81.0537 304.426 80.864 304.266 80.7046C304.107 80.5455 303.917 80.42 303.708 80.3353C303.499 80.2508 303.275 80.2092 303.05 80.2127ZM281.432 103.821C280.315 103.821 279.244 104.265 278.454 105.054C277.664 105.844 277.221 106.915 277.221 108.032C277.221 109.149 277.664 110.221 278.454 111.011C279.244 111.8 280.315 112.244 281.432 112.244C281.985 112.244 282.533 112.135 283.044 111.923C283.555 111.712 284.019 111.402 284.41 111.011C284.801 110.619 285.112 110.155 285.323 109.644C285.535 109.133 285.644 108.586 285.644 108.032C285.644 107.479 285.535 106.932 285.323 106.421C285.112 105.91 284.801 105.446 284.41 105.054C284.019 104.663 283.555 104.353 283.044 104.141C282.533 103.93 281.985 103.821 281.432 103.821Z" fill="white"/>
</g>
<g opacity="0.5">
<path d="M519.643 0.2146H415.715C403.941 0.2146 394.396 9.75923 394.396 21.5331V125.461C394.396 137.235 403.941 146.779 415.715 146.779H519.643C531.417 146.779 540.961 137.235 540.961 125.461V21.5331C540.961 9.75923 531.417 0.2146 519.643 0.2146Z" fill="#1E959B"/>
<path d="M516.535 73.0448C516.535 66.572 508.429 60.4379 496.001 56.6338C498.869 43.9669 497.595 33.8894 491.978 30.6628C490.683 29.906 489.17 29.5476 487.517 29.5476V33.9888C488.433 33.9888 489.17 34.1681 489.787 34.5068C492.496 36.0601 493.671 41.9755 492.755 49.5835C492.536 51.4556 492.177 53.4273 491.739 55.4389C487.836 54.4828 483.573 53.746 479.092 53.2679C476.404 49.5835 473.615 46.2376 470.807 43.3097C477.3 37.275 483.394 33.969 487.537 33.969V29.5276C482.06 29.5276 474.89 33.4313 467.64 40.2028C460.391 33.471 453.221 29.6073 447.744 29.6073V34.0487C451.866 34.0487 457.981 37.3347 464.474 43.3297C461.685 46.2573 458.897 49.5835 456.248 53.2679C451.747 53.746 447.485 54.4828 443.581 55.4586C443.123 53.4672 442.785 51.5352 442.546 49.6829C441.61 42.0749 442.765 36.1598 445.454 34.5865C446.051 34.2278 446.828 34.0684 447.744 34.0684V29.6273C446.071 29.6273 444.557 29.9857 443.243 30.7425C437.646 33.969 436.392 44.0269 439.279 56.6538C426.891 60.4778 418.825 66.592 418.825 73.0448C418.825 79.5177 426.931 85.6521 439.359 89.4561C436.491 102.123 437.766 112.201 443.382 115.427C444.677 116.184 446.19 116.542 447.863 116.542C453.34 116.542 460.51 112.639 467.76 105.867C475.009 112.599 482.179 116.463 487.656 116.463C489.329 116.463 490.843 116.104 492.157 115.347C497.754 112.121 499.009 102.063 496.121 89.4361C508.469 85.6321 516.535 79.498 516.535 73.0448ZM490.604 59.7607C489.867 62.3299 488.951 64.9787 487.915 67.6278C487.099 66.0345 486.242 64.4409 485.306 62.8476C484.39 61.2544 483.414 59.701 482.438 58.1874C485.266 58.6055 487.995 59.1233 490.604 59.7607ZM481.482 80.9716C479.929 83.6604 478.336 86.2098 476.682 88.5796C473.715 88.8387 470.707 88.978 467.68 88.978C464.673 88.978 461.666 88.8387 458.718 88.5996C457.065 86.2295 455.451 83.7004 453.898 81.0316C452.384 78.4224 451.01 75.7736 449.755 73.1048C450.99 70.436 452.384 67.7672 453.878 65.158C455.431 62.4692 457.025 59.9201 458.678 57.55C461.646 57.291 464.653 57.1516 467.68 57.1516C470.688 57.1516 473.695 57.291 476.643 57.53C478.296 59.9001 479.909 62.4295 481.462 65.0984C482.976 67.7075 484.35 70.3563 485.605 73.0251C484.35 75.6939 482.976 78.3627 481.482 80.9716ZM487.915 78.3825C488.991 81.0513 489.907 83.7201 490.664 86.3092C488.055 86.9466 485.306 87.4844 482.458 87.9025C483.434 86.3689 484.41 84.7956 485.326 83.1823C486.242 81.589 487.099 79.9758 487.915 78.3825ZM467.72 99.6333C465.868 97.7213 464.016 95.5902 462.183 93.2601C463.976 93.3398 465.808 93.3995 467.66 93.3995C469.532 93.3995 471.385 93.3598 473.197 93.2601C471.405 95.5902 469.552 97.7213 467.72 99.6333ZM452.902 87.9025C450.074 87.4844 447.346 86.9666 444.736 86.3292C445.473 83.7601 446.389 81.1112 447.425 78.4621C448.242 80.0554 449.098 81.6487 450.034 83.2423C450.97 84.8356 451.926 86.3889 452.902 87.9025ZM467.62 46.4566C469.473 48.3686 471.325 50.4997 473.157 52.8298C471.365 52.7501 469.532 52.6904 467.68 52.6904C465.808 52.6904 463.956 52.7301 462.143 52.8298C463.936 50.4997 465.788 48.3686 467.62 46.4566ZM452.882 58.1874C451.906 59.7208 450.931 61.2943 450.014 62.9076C449.098 64.5009 448.242 66.0942 447.425 67.6875C446.35 65.0187 445.434 62.3499 444.677 59.7607C447.286 59.1433 450.034 58.6055 452.882 58.1874ZM434.858 83.1226C427.807 80.1154 423.247 76.1717 423.247 73.0448C423.247 69.9182 427.807 65.9548 434.858 62.9673C436.571 62.2302 438.443 61.5731 440.375 60.9556C441.51 64.8593 443.004 68.9224 444.856 73.0848C443.024 77.2275 441.55 81.2703 440.434 85.154C438.463 84.5369 436.591 83.8595 434.858 83.1226ZM445.573 111.583C442.864 110.03 441.689 104.114 442.605 96.5064C442.824 94.6344 443.183 92.6627 443.621 90.651C447.525 91.6071 451.787 92.344 456.268 92.822C458.957 96.5064 461.745 99.8524 464.553 102.78C458.061 108.815 451.966 112.121 447.823 112.121C446.927 112.101 446.17 111.922 445.573 111.583ZM492.815 96.407C493.751 104.015 492.595 109.93 489.907 111.503C489.309 111.862 488.533 112.021 487.617 112.021C483.494 112.021 477.379 108.735 470.887 102.74C473.675 99.8126 476.463 96.4867 479.112 92.802C483.613 92.324 487.875 91.5872 491.779 90.6113C492.237 92.6227 492.595 94.5547 492.815 96.407ZM500.483 83.1226C498.77 83.8595 496.898 84.5169 494.966 85.1343C493.83 81.2306 492.337 77.1676 490.484 73.0051C492.317 68.8624 493.791 64.8193 494.906 60.9356C496.878 61.5531 498.75 62.2302 500.502 62.9673C507.553 65.9745 512.114 69.9182 512.114 73.0448C512.094 76.1717 507.533 80.1351 500.483 83.1226Z" fill="white"/>
<path d="M467.659 82.147C472.686 82.147 476.761 78.0719 476.761 73.045C476.761 68.0184 472.686 63.9434 467.659 63.9434C462.633 63.9434 458.558 68.0184 458.558 73.045C458.558 78.0719 462.633 82.147 467.659 82.147Z" fill="white"/>
</g>
</svg>
