<svg width="49" height="85" viewBox="0 0 49 85" fill="none" xmlns="http://www.w3.org/2000/svg">
<path d="M42.0652 0H6.5379C3.14026 0 0.395508 2.75542 0.395508 6.15306V78.2896C0.395508 81.6766 3.14026 84.4347 6.5379 84.4347H42.0652C45.4575 84.4347 48.2129 81.6793 48.2129 78.2896V6.15306C48.2102 2.75542 45.4575 0 42.0652 0ZM43.6054 68.4111H5.00297V10.3795H43.6054V68.4111ZM32.5385 6.24366H16.0673V4.44758H32.5411L32.5385 6.24366ZM39.5869 5.4229C39.5869 6.29163 38.8781 6.99514 38.012 6.99514C37.1433 6.99514 36.4371 6.28897 36.4371 5.4229C36.4371 4.55684 37.1433 3.85066 38.012 3.85066C38.8807 3.84799 39.5869 4.55417 39.5869 5.4229ZM31.8003 77.8792H16.8001V73.2638H31.8003V77.8792Z" fill="#1E959B"/>
</svg>
